<svg width="24" height="25" viewBox="0 0 24 25" fill="none" xmlns="http://www.w3.org/2000/svg">
<g clip-path="url(#clip0_69_7)">
<path fill-rule="evenodd" clip-rule="evenodd" d="M12.0001 0.5C12.5523 0.5 13.0001 0.947715 13.0001 1.5V2.57089C16.3924 3.05612 19.0001 5.97353 19.0001 9.5V10.6036C19.0001 12.2412 19.5742 13.8269 20.6225 15.0849L21.0346 15.5794C22.663 17.5334 21.2735 20.5 18.73 20.5H16.0001C16.0001 22.7091 14.2092 24.5 12.0001 24.5C9.79092 24.5 8.00006 22.7091 8.00006 20.5H5.27014C2.72663 20.5 1.33715 17.5334 2.96547 15.5794L3.37761 15.0849C4.42594 13.8269 5.00006 12.2412 5.00006 10.6036V9.5C5.00006 5.97353 7.60776 3.05612 11.0001 2.57089V1.5C11.0001 0.947715 11.4478 0.5 12.0001 0.5ZM10.0001 20.5C10.0001 21.6046 10.8955 22.5 12.0001 22.5C13.1046 22.5 14.0001 21.6046 14.0001 20.5H10.0001ZM5.27014 18.5C4.4223 18.5 3.95915 17.5111 4.50192 16.8598L4.91405 16.3653C6.26191 14.7478 7.00006 12.709 7.00006 10.6036V9.5C7.00006 6.73858 9.23863 4.5 12.0001 4.5C14.7615 4.5 17.0001 6.73858 17.0001 9.5V10.6036C17.0001 12.709 17.7382 14.7478 19.0861 16.3653L19.4982 16.8598C20.041 17.5111 19.5778 18.5 18.73 18.5H5.27014Z" fill="black"/>
</g>
<defs>
<clipPath id="clip0_69_7">
<rect width="24" height="24" fill="white" transform="translate(0 0.5)"/>
</clipPath>
</defs>
</svg>
