<svg width="24" height="25" viewBox="0 0 24 25" fill="none" xmlns="http://www.w3.org/2000/svg">
<path fill-rule="evenodd" clip-rule="evenodd" d="M1.29289 1.79289C1.68342 1.40237 2.31658 1.40237 2.70711 1.79289L3.70711 2.79289C4.09763 3.18342 4.09763 3.81658 3.70711 4.20711C3.31658 4.59763 2.68342 4.59763 2.29289 4.20711L1.29289 3.20711C0.90237 2.81658 0.90237 2.18342 1.29289 1.79289ZM12 3.5C8.68629 3.5 6 6.18629 6 9.5C6 10.989 6.54108 12.349 7.4386 13.3981C8.18178 14.2668 9.00615 15.3069 9.5129 16.5H14.4871C14.9939 15.3069 15.8182 14.2668 16.5614 13.3981C17.4589 12.349 18 10.989 18 9.5C18 6.18629 15.3137 3.5 12 3.5ZM14.0071 18.5H9.99293C9.9976 18.5899 10 18.6805 10 18.7719V19.5C10 20.6046 10.8954 21.5 12 21.5C13.1046 21.5 14 20.6046 14 19.5V18.7719C14 18.6805 14.0024 18.5899 14.0071 18.5ZM4 9.5C4 5.08172 7.58172 1.5 12 1.5C16.4183 1.5 20 5.08172 20 9.5C20 11.4835 19.2769 13.3006 18.0811 14.6983C17.2004 15.7277 16.4561 16.7302 16.1481 17.7812C16.0517 18.1103 16 18.4392 16 18.7719V19.5C16 21.7091 14.2091 23.5 12 23.5C9.79086 23.5 8 21.7091 8 19.5V18.7719C8 18.4392 7.94833 18.1103 7.8519 17.7812C7.5439 16.7302 6.79962 15.7277 5.91887 14.6983C4.72312 13.3006 4 11.4835 4 9.5ZM22.7071 1.79289C23.0976 2.18342 23.0976 2.81658 22.7071 3.20711L21.7071 4.20711C21.3166 4.59763 20.6834 4.59763 20.2929 4.20711C19.9024 3.81658 19.9024 3.18342 20.2929 2.79289L21.2929 1.79289C21.6834 1.40237 22.3166 1.40237 22.7071 1.79289ZM3.70711 14.7929C4.09763 15.1834 4.09763 15.8166 3.70711 16.2071L2.70711 17.2071C2.31658 17.5976 1.68342 17.5976 1.29289 17.2071C0.90237 16.8166 0.90237 16.1834 1.29289 15.7929L2.29289 14.7929C2.68342 14.4024 3.31658 14.4024 3.70711 14.7929ZM20.2929 14.7929C20.6834 14.4024 21.3166 14.4024 21.7071 14.7929L22.7071 15.7929C23.0976 16.1834 23.0976 16.8166 22.7071 17.2071C22.3166 17.5976 21.6834 17.5976 21.2929 17.2071L20.2929 16.2071C19.9024 15.8166 19.9024 15.1834 20.2929 14.7929Z" fill="black"/>
</svg>
