<svg width="24" height="25" viewBox="0 0 24 25" fill="none" xmlns="http://www.w3.org/2000/svg">
<path fill-rule="evenodd" clip-rule="evenodd" d="M10.5 3.5C6.35784 3.5 2.99998 6.85786 2.99998 11C2.99998 12.3539 3.35783 13.6212 3.98341 14.7157C4.1348 14.9805 4.157 15.3 4.0437 15.5833L2.82507 18.6298L5.74512 17.3784C6.03999 17.252 6.37759 17.2748 6.65282 17.4396C7.4621 17.9243 8.36975 18.2604 9.33891 18.4108C9.71675 18.4695 10.1045 18.5 10.5 18.5C14.6421 18.5 18 15.1421 18 11C18 10.6045 17.9695 10.2168 17.9108 9.83893C17.3534 6.24838 14.2467 3.5 10.5 3.5ZM0.999979 11C0.999979 5.75329 5.25327 1.5 10.5 1.5C15.0993 1.5 18.9338 4.76758 19.8114 9.10809C21.7463 10.5667 23 12.8868 23 15.5C23 16.7691 22.7038 17.9714 22.1762 19.0393L22.9343 20.8082C23.6455 22.4677 21.9676 24.1455 20.3082 23.4343L18.5393 22.6762C17.4714 23.2038 16.2691 23.5 15 23.5C12.3868 23.5 10.0667 22.2463 8.60806 20.3114C7.71323 20.1305 6.86395 19.8238 6.07971 19.4109L3.61291 20.4681C1.97517 21.17 0.306372 19.5414 0.968119 17.8871L2.01348 15.2737C1.36499 13.9882 0.999979 12.5355 0.999979 11ZM11.5906 20.4381C12.5592 21.1082 13.7339 21.5 15 21.5C16.0917 21.5 17.1126 21.2093 17.9925 20.7018C18.2654 20.5444 18.5965 20.5248 18.886 20.6489L21.096 21.5961L20.1489 19.3861C20.0248 19.0965 20.0444 18.7654 20.2018 18.4925C20.7093 17.6126 21 16.5917 21 15.5C21 14.2339 20.6081 13.0592 19.9381 12.0906C19.438 16.4658 15.9658 19.938 11.5906 20.4381ZM6.00006 9.5C6.00006 8.94772 6.44778 8.5 7.00006 8.5H10.0001C10.5523 8.5 11.0001 8.94772 11.0001 9.5C11.0001 10.0523 10.5523 10.5 10.0001 10.5H7.00006C6.44778 10.5 6.00006 10.0523 6.00006 9.5ZM6.00006 13.5C6.00006 12.9477 6.44778 12.5 7.00006 12.5H14.0001C14.5523 12.5 15.0001 12.9477 15.0001 13.5C15.0001 14.0523 14.5523 14.5 14.0001 14.5H7.00006C6.44778 14.5 6.00006 14.0523 6.00006 13.5Z" fill="black"/>
</svg>
